<?xml version="1.0" encoding="utf-8"?>
<!-- Generator: Adobe Illustrator 27.5.0, SVG Export Plug-In . SVG Version: 6.00 Build 0)  -->
<svg version="1.1" id="Capa_1" xmlns="http://www.w3.org/2000/svg" xmlns:xlink="http://www.w3.org/1999/xlink" x="0px" y="0px"
	 viewBox="0 0 425.197 425.197" style="enable-background:new 0 0 425.197 425.197;" xml:space="preserve">
<rect x="0" style="fill:#FFD700;" width="425.197" height="425.197"/>
<ellipse style="fill:#F9B104;" cx="213.02" cy="365.117" rx="150" ry="17.448"/>
<g>
	<path style="fill:#F9BB8D;" d="M160.774,169.199c-1.246-6.277-7.222-12.121-15.422-10.329c-8.191,1.797-8.221,9.438-6.975,15.722
		c0.07,0.325,4.101,17.302,6.472,20.871c2.367,3.578,5.805,10.366,11.568,8.432c3.812-1.279,6.056-8.068,6.958-12.968
		C164.276,186.025,160.774,169.199,160.774,169.199z"/>
	<path style="fill:#F9BB8D;" d="M265.1,168.944c1.247-6.278,7.221-12.121,15.421-10.328c8.199,1.794,9.002,9.66,7.76,15.935
		c-0.069,0.333-4.427,16.044-6.471,20.881c-1.682,3.983-6.261,10.997-12.212,8.544c-3.72-1.535-6.197-8.407-7.1-13.307
		C261.598,185.77,265.1,168.944,265.1,168.944z"/>
	<path style="fill:#259DAB;" d="M85.461,361.205h254.276c0,0-5.012-62.414-13.354-71.767c-8.346-9.353-71.91-30.263-71.91-30.263
		l-83.081-0.241c0,0-66.884,19.574-71.452,30.504C95.371,300.366,85.461,361.205,85.461,361.205z"/>
	<path style="fill:#C5D2DB;" d="M204.605,259.028l-33.212-0.095c0,0-66.884,19.574-71.452,30.504
		c-4.569,10.929-14.479,71.767-14.479,71.767h33.543c0,0,9.91-60.839,14.478-71.767C137.874,278.933,199.79,260.451,204.605,259.028
		z"/>
	<path style="fill:#D99870;" d="M180.38,254.849c0,0,20.945,17.175,32.693,17.175c11.745,0,32.685-17.175,32.685-17.175
		s-8.862-10.315-2.753-23.867c6.108-13.549-68.125-12.439-59.495,0C192.136,243.422,180.38,254.849,180.38,254.849z"/>
	<path style="fill:#E5D7D8;" d="M202.142,268.927c1.563-4.294,4.7-8.598,9.729-12.261c5.027-3.665,8.003-0.374,29.269-12.578
		c-0.584-3.723-0.348-8.198,1.865-13.107c6.108-13.549-68.125-12.439-59.495,0c8.626,12.44-3.13,23.867-3.13,23.867
		S191.544,263.983,202.142,268.927z"/>
	<path style="fill:#C5D2DB;" d="M176.247,253.633l-4.855,5.301c0,0,14.473,35.747,27.041,40.277
		c3.837,1.385,11.834-16.331,14.622-16.331c1.345,0,12.141,18.793,13.781,18.42c12.874-2.936,27.637-42.125,27.637-42.125
		l-5.442-4.128l-35.976,22.642L176.247,253.633z"/>
	<path style="fill:#F9BB8D;" d="M273.104,121.97c0-27.239-16.875-54.569-61.553-54.569c-44.678,0-60.9,29.907-60.9,57.149
		c0,1.43-0.138,75.5,8.538,92.508c8.674,17.004,32.553,34.362,53.879,34.442c23.321,0.092,44.278-14.889,54.07-34.442
		C276.933,197.499,273.104,121.97,273.104,121.97z"/>
	<path style="fill:#F0E8E4;" d="M167.844,128.104c0.382,0.272,0.728,0.509,1.178,0.838c1.222,1.15-4.913,14.826-3.127,14.895
		c8.85,1.862,19.468-17.307,28.115-14.621c15.224,4.739,43.856,43.108,71.957,42.357c7.385-7.121,7.138-49.604,7.138-49.604
		c0-27.239-16.875-54.569-61.553-54.569c-37.018,0-54.458,20.535-59.365,43.068C159.097,113.422,164.882,119.134,167.844,128.104z"
		/>
	<path style="fill:#F0E8E4;" d="M230.563,232.011c-21.327-0.081-45.204-17.439-53.88-34.445
		c-8.674-17.009-8.535-91.077-8.535-92.508c0-9.471,2.017-19.238,6.453-27.981c-17.037,11.015-23.948,29.778-23.948,47.474
		c0,1.43-0.138,75.5,8.538,92.508c8.674,17.004,32.553,34.362,53.879,34.442c22.049,0.086,41.971-13.306,52.357-31.293
		C255.493,227.532,243.391,232.059,230.563,232.011z"/>
	<g>
		<path style="fill:#F0E8E4;" d="M265.126,220.657c0.092-0.155,0.21-0.294,0.301-0.449c-0.5,0.365-1.025,0.693-1.535,1.047
			C264.31,221.068,264.715,220.852,265.126,220.657z"/>
		<path style="fill:#F0E8E4;" d="M223.192,245.755c-21.324-0.08-45.205-17.436-53.878-34.445
			c-8.675-17.008-8.538-91.073-8.538-92.507c0-12.206,3.396-24.859,11.025-35.188c0.799-2.226,1.722-4.417,2.799-6.539
			c-17.037,11.015-23.948,29.778-23.948,47.474c0,1.43-0.138,75.5,8.538,92.508c8.674,17.004,32.553,34.362,53.879,34.442
			c12.096,0.049,23.479-4.054,33.073-10.653C239.013,243.984,231.25,245.789,223.192,245.755z"/>
	</g>
	<path style="fill:#3D2216;" d="M283.099,115.474c-5.498-29.987-29.987-51.729-70.029-51.48
		c-39.926,0.25-66.168,24.721-71.414,52.478c-2.249,11.888-3.986,34.487-3.062,47.957c6.759-5.558,9.546-6.281,12.819-4.978
		c2.239,24.494,7.568,24.126,7.568,24.126s0.491-16.634,1.578-27.626c1.089-10.989,19.082-12.986,28.078-31.991
		c28.49-1.239,46.48,35.247,77.718,37.245c-3.09,18.058,3.751,25.242,3.751,25.242s0.725-14.918,3.245-21.993
		c2.197-6.165,8.749-6.165,11.988-3.491C286.895,149.744,286.137,132.041,283.099,115.474z"/>
	<g style="opacity:0.5;">
		<path style="fill:#FFFFFF;" d="M283.099,115.474c-5.498-29.987-29.987-51.729-70.029-51.48
			c-35.045,0.218-59.537,19.102-68.552,42.487c11.23-19.229,33.751-33.676,64.356-33.865c40.044-0.247,64.532,21.492,70.031,51.482
			c2.233,12.181,3.224,24.957,2.978,35.339c1.301,0.244,2.52,0.758,3.456,1.526C286.895,149.744,286.137,132.041,283.099,115.474z"
			/>
	</g>
	<g>
		<path style="fill:#AFAAA8;" d="M188.638,109.712c-8.996,19.007-37.985,36.917-50.044,40.469c-0.042-0.615-0.052-1.339-0.083-1.992
			c-0.221,5.941-0.232,11.635,0.083,16.24c6.759-5.558,9.546-6.281,12.819-4.978c2.239,24.494,7.568,24.126,7.568,24.126
			s0.491-16.634,1.578-27.626c1.089-10.989,19.082-12.986,28.078-31.991c28.366-1.235,46.339,34.911,77.329,37.193
			C243.109,153.218,217.128,108.475,188.638,109.712z"/>
	</g>
	<path style="fill:#FFFFFF;" d="M176.247,245.137l-4.855,13.797c0,0,14.473,27.251,27.041,31.781
		c3.837,1.385,11.834-16.329,14.622-16.329c1.345,0,12.141,18.794,13.781,18.418c12.874-2.936,27.637-33.629,27.637-33.629
		l-5.442-12.624l-35.976,22.643L176.247,245.137z"/>
</g>
</svg>
