<svg width="389" height="46" viewBox="0 0 389 46" fill="none" xmlns="http://www.w3.org/2000/svg">
<path d="M25.4155 0.25188C27.5693 -0.270908 29.8832 0.0410465 31.8716 0.993432C33.0508 1.66889 33.8639 2.84599 34.2971 4.10967C34.9401 5.9728 34.9661 7.98133 34.8126 9.92576C34.5515 12.7558 33.8732 15.5403 32.904 18.211C32.5632 19.1178 32.2017 20.0233 31.7141 20.864C31.6165 21.0332 31.5102 21.1991 31.372 21.3392C31.8616 20.0636 32.2383 18.7477 32.5538 17.4199C32.9903 15.5244 33.2786 13.5853 33.2574 11.6369C33.2441 9.76978 32.9325 7.85378 32.0151 6.2028C31.0657 4.4778 29.367 3.15662 27.4272 2.7409C25.8042 2.39128 24.1088 2.71711 22.6007 3.3549C20.5772 4.21277 18.7974 5.54915 17.189 7.02564C16.3673 7.78702 15.5966 8.60194 14.8672 9.45122C15.9574 7.52993 17.3126 5.75403 18.8758 4.18832C20.6914 2.38533 22.8864 0.846046 25.4155 0.25188Z" fill="#DE221A"/>
<path d="M19.4503 2.87305C16.6673 5.55968 14.3169 8.67922 12.4123 12.036C11.3128 13.997 10.3727 16.0485 9.65194 18.1773C8.96966 20.1554 8.49798 22.203 8.20235 24.273C7.94326 26.0389 7.827 27.83 7.93927 29.6132C8.06683 31.401 8.44018 33.2112 9.33239 34.7862C10.0233 35.9904 11.0603 37.0895 12.4182 37.5211C12.3452 37.5997 12.2302 37.6037 12.1332 37.6361C10.8697 37.9771 9.50578 38.0835 8.23424 37.7233C7.25301 37.4497 6.37675 36.8291 5.80011 35.993C5.03878 34.9019 4.73517 33.5675 4.61758 32.2635C4.44486 29.9985 4.76706 27.7296 5.23343 25.5168C5.56028 23.9835 5.97084 22.4693 6.43056 20.971C6.53752 20.6392 6.62189 20.2982 6.76472 19.979C7.67287 17.9447 8.71987 15.9731 9.8612 14.0591C11.344 11.5919 13.0042 9.22316 14.9142 7.06262C16.2814 5.52135 17.7801 4.0865 19.4503 2.87305Z" fill="#DE221A"/>
<path d="M31.6211 21.6744C33.7875 21.6592 35.9546 21.6711 38.1216 21.6685C38.1223 22.1899 38.1216 22.7107 38.1223 23.2322C37.3145 23.2362 36.506 23.2289 35.6981 23.2362C35.7028 25.7946 35.6968 28.353 35.7008 30.9121C35.1527 30.9141 34.6046 30.9048 34.0572 30.9167C34.036 28.3563 34.0519 25.7946 34.0486 23.2335C33.2394 23.2302 32.4303 23.2381 31.6211 23.2296C31.6284 22.7114 31.6284 22.1926 31.6211 21.6744Z" fill="#DE221A"/>
<path d="M10.5775 21.7847C11.6305 21.7867 12.6842 21.7853 13.7378 21.786C14.337 21.7919 14.9389 21.7972 15.5342 21.8779C16.2702 21.9856 16.9167 22.4786 17.2701 23.1217C17.5365 23.6095 17.6155 24.1759 17.6029 24.7244C17.587 25.2479 17.4694 25.7826 17.1698 26.2208C16.7605 26.8718 16.0324 27.302 15.2698 27.386C14.3284 27.501 13.3784 27.464 12.433 27.4673C12.4324 28.6126 12.4244 29.7587 12.437 30.9047C11.8165 30.9179 11.1954 30.9113 10.5742 30.908C10.5835 27.8671 10.5769 24.8256 10.5775 21.7847ZM12.4284 23.3358C12.4337 24.1957 12.4317 25.0556 12.4297 25.9154C13.1266 25.9273 13.8275 25.9385 14.5224 25.8645C14.8625 25.8288 15.2 25.6821 15.4199 25.4144C15.7355 25.0311 15.78 24.4601 15.5581 24.0219C15.3501 23.626 14.909 23.394 14.4699 23.3676C13.7909 23.3226 13.1087 23.314 12.4284 23.3358Z" fill="#DE221A"/>
<path d="M17.8633 21.7938C20.031 21.7799 22.2001 21.7892 24.3685 21.7892C24.3678 22.31 24.3685 22.8301 24.3678 23.3509C23.5573 23.3615 22.7462 23.337 21.9363 23.3635C21.9536 25.9192 21.9416 28.4763 21.9423 31.0328C21.3916 31.0262 20.8415 31.0315 20.2914 31.0301C20.2941 28.4711 20.2908 25.912 20.2934 23.3529C19.4849 23.3509 18.6764 23.3535 17.8679 23.3522C17.8679 22.8321 17.8766 22.3126 17.8633 21.7938Z" fill="#DE221A"/>
<path d="M26.9948 25.2437C27.622 25.8643 28.2484 26.4855 28.8703 27.1121C28.8636 28.3784 28.8696 29.6454 28.8676 30.9117C28.2425 30.9527 27.6173 30.9877 26.9922 31.0307C26.9955 29.1014 26.9909 27.1729 26.9948 25.2437Z" fill="#DE221A"/>
<path d="M24.949 28.8104C25.5841 27.9248 26.192 26.9843 26.477 25.9229C26.5088 27.4641 26.471 29.0054 26.4909 30.5473C26.4896 30.6293 26.4371 30.6973 26.4032 30.7694C25.2546 32.9174 23.4761 34.6609 21.5456 36.1208C20.2216 37.1155 18.8005 37.9787 17.331 38.744C16.3903 39.2391 15.4005 39.6495 14.3654 39.902C13.0348 40.2291 11.6224 40.2853 10.2864 39.9568C8.55313 39.5358 6.98862 38.4962 5.89844 37.0964C6.7169 37.9298 7.86023 38.3838 9.01152 38.5094C10.5315 38.6826 12.0628 38.3435 13.4785 37.8042C15.6848 36.9529 17.6546 35.6073 19.5047 34.1592C21.5084 32.5849 23.4243 30.8593 24.949 28.8104Z" fill="#DE221A"/>
<path d="M3.00291 40.9925C8.2638 40.9998 13.5254 40.9952 18.7862 40.9952C19.5476 40.9819 20.3873 40.9852 21.0271 41.4558C21.6449 40.9654 22.482 40.9833 23.2307 40.9905C28.3946 40.9932 33.5578 40.9932 38.721 40.9912C38.7204 41.2232 38.7263 41.4558 38.7164 41.6891C33.4236 41.6898 28.1308 41.6918 22.838 41.6865C22.4109 41.6911 21.9571 41.7123 21.5778 41.9271C21.4675 41.9826 21.4031 42.089 21.3546 42.1974C21.1287 42.206 20.9035 42.2172 20.6783 42.2331C20.6623 42.0024 20.4358 41.8927 20.2411 41.8312C19.6193 41.631 18.9576 41.705 18.3159 41.6944C13.2118 41.6971 8.10768 41.6885 3.00358 41.6984C2.99826 41.4631 2.99959 41.2278 3.00291 40.9925Z" fill="#DE221A"/>
<path d="M3 42.1997C8.39641 42.2024 13.7922 42.2004 19.1879 42.2004C19.7599 42.238 20.312 42.5156 20.6647 42.9684C20.6661 43.6927 20.6654 44.4178 20.6647 45.1421C20.312 44.5103 19.5307 44.3047 18.8524 44.3041C13.5689 44.3199 8.28547 44.3477 3.00266 44.3814C2.99867 43.6544 3.00332 42.9267 3 42.1997Z" fill="#DE221A"/>
<path d="M21.0547 42.9749C21.4094 42.5063 21.9814 42.23 22.5661 42.1983C27.9479 42.2009 33.3303 42.2055 38.7121 42.1963C38.7374 42.9226 38.7154 43.651 38.7227 44.378C33.426 44.3522 28.1292 44.3165 22.8318 44.3046C22.1655 44.3106 21.4114 44.5214 21.0573 45.1328C21.0547 44.4137 21.0613 43.6939 21.0547 42.9749Z" fill="#DE221A"/>
<path d="M29.8179 17.0878C29.8398 17.0039 29.8877 16.9298 29.9302 16.8545C29.7249 18.4671 29.4645 20.0738 29.2419 21.6852C28.8075 21.8993 28.3982 22.165 27.9531 22.358C28.4534 20.9231 28.9835 19.4988 29.4957 18.0679C29.6067 17.7421 29.7508 17.4268 29.8179 17.0878Z" fill="#B89C0E"/>
<path d="M25.0273 21.6943C25.7116 21.9957 26.3852 22.3215 27.0682 22.6256C27.1592 22.6632 27.2429 22.7168 27.3193 22.7796C26.8476 22.9547 26.374 23.1246 25.9023 23.3004C25.6086 22.7663 25.3004 22.2389 25.0273 21.6943Z" fill="#B89C0E"/>
<path d="M24.0271 26.5681C25.2036 25.432 26.3655 24.28 27.5494 23.1519C27.9786 24.2166 28.4356 25.2721 28.8296 26.3494C28.336 25.8154 27.8676 25.2575 27.3939 24.7057C26.226 25.3739 25.0874 26.0963 23.9102 26.7473C23.942 26.6831 23.9733 26.6171 24.0271 26.5681Z" fill="#B89C0E"/>
<path d="M27.3051 21.6515C28.1428 20.1308 28.9599 18.5974 29.8176 17.0879C29.7505 17.4269 29.6063 17.7422 29.4954 18.068C28.9832 19.4989 28.4531 20.9232 27.9528 22.3581C28.3979 22.1651 28.8072 21.8994 29.2416 21.6852C29.9345 21.6621 30.6288 21.6839 31.3223 21.6562C31.3243 21.674 31.329 21.709 31.331 21.7269C31.3164 21.7295 31.2878 21.7348 31.2732 21.7381C31.1456 21.7613 31.0194 21.787 30.8972 21.8293C29.8668 22.1908 28.8317 22.5385 27.8013 22.8994C28.1402 23.097 28.5202 23.2106 28.8729 23.3812C28.8676 24.3924 28.8809 25.4042 28.8663 26.4154C28.857 26.3989 28.8397 26.3659 28.8311 26.3494C28.4371 25.2721 27.9801 24.2166 27.5509 23.1518C26.367 24.28 25.2051 25.432 24.0286 26.5681C23.9748 26.617 23.9435 26.6831 23.9116 26.7472C23.8718 26.8213 23.7715 26.8345 23.707 26.8807C24.4478 25.6931 25.1686 24.4922 25.904 23.3005C26.3757 23.1247 26.8493 22.9549 27.321 22.7797C27.2446 22.7169 27.1609 22.6634 27.0699 22.6257C26.387 22.3217 25.7133 21.9959 25.0291 21.6945L25.0038 21.6839C25.7705 21.6648 26.5378 21.6707 27.3051 21.6515Z" fill="#EFF003"/>
<path d="M30.8966 21.8295C31.0188 21.7872 31.1451 21.7614 31.2726 21.7383C30.4801 22.2968 29.6722 22.8341 28.8724 23.3813C28.5196 23.2108 28.1396 23.0971 27.8008 22.8995C28.8312 22.5387 29.8662 22.191 30.8966 21.8295Z" fill="#B89C0D"/>
<path d="M57.5811 18.1831C54.4902 18.1831 52.5493 16.1177 52.5493 12.7119V12.7046C52.5493 9.29883 54.4976 7.24805 57.5811 7.24805C60.1445 7.24805 61.9829 8.8667 62.188 11.1079L62.1953 11.1738H60.042L60.0127 11.0493C59.7637 9.88477 58.8994 9.12305 57.5811 9.12305C55.8892 9.12305 54.8052 10.4854 54.8052 12.6973V12.7046C54.8052 14.9312 55.8892 16.3081 57.5811 16.3081C58.8555 16.3081 59.749 15.5757 60.0347 14.3232L60.0493 14.25H62.2026L62.1953 14.3306C61.9902 16.5791 60.1372 18.1831 57.5811 18.1831ZM69.3804 5.45361V5.42432C69.5415 5.27783 69.6294 5.13135 69.6294 4.97754C69.6294 4.73584 69.4609 4.58203 69.0508 4.58203C68.9263 4.58203 68.8018 4.59668 68.7065 4.61865V3.79102C68.8677 3.73975 69.1387 3.68848 69.439 3.68848C70.2446 3.68848 70.7573 4.02539 70.7573 4.56738C70.7573 4.92627 70.5376 5.20459 70.1714 5.45361H69.3804ZM67.6226 5.46826H69.0361L70.6182 6.94775H69.1533L68.3257 6.17139L67.52 6.94775H66.0552L67.6226 5.46826ZM68.3403 18.1831C65.1982 18.1831 63.2427 16.0811 63.2427 12.7192V12.7046C63.2427 9.34277 65.2129 7.24805 68.3403 7.24805C71.4751 7.24805 73.438 9.3501 73.438 12.7046V12.7192C73.438 16.0811 71.4824 18.1831 68.3403 18.1831ZM68.3403 16.3081C70.0981 16.3081 71.1821 14.9092 71.1821 12.7192V12.7046C71.1821 10.5 70.0762 9.12305 68.3403 9.12305C66.6118 9.12305 65.4985 10.4927 65.4985 12.7046V12.7192C65.4985 14.9312 66.6045 16.3081 68.3403 16.3081ZM74.8662 18V7.43115H76.7998L81.5752 14.3013H81.6191V7.43115H83.8237V18H81.9048L77.1147 11.0786H77.0708V18H74.8662ZM90.3496 18.1831C87.1929 18.1831 85.2593 16.125 85.2593 12.6826V12.6753C85.2593 9.2915 87.2002 7.24805 90.2983 7.24805C92.8398 7.24805 94.5684 8.72754 94.9199 10.7124L94.9419 10.8149H92.7227L92.6934 10.7417C92.3418 9.71631 91.4995 9.12305 90.3057 9.12305C88.5625 9.12305 87.5151 10.4121 87.5151 12.6533V12.6606C87.5151 14.9531 88.6284 16.3081 90.3862 16.3081C91.8291 16.3081 92.8179 15.4512 92.8765 14.1475L92.8838 13.9937H90.4668V12.3457H95.0371V13.5615C95.0371 16.4399 93.2939 18.1831 90.3496 18.1831ZM102.002 18V9.25488H98.9482V7.43115H107.276V9.25488H104.214V18H102.002ZM108.499 18V7.43115H110.711V11.7231H115.472V7.43115H117.684V18H115.472V13.5469H110.711V18H108.499ZM121.653 6.55957L123.345 4.14258H125.059L126.758 6.55957H125.235L124.188 5.09473L123.177 6.55957H121.653ZM124.209 18.1831C121.067 18.1831 119.112 16.0811 119.112 12.7192V12.7046C119.112 9.34277 121.082 7.24805 124.209 7.24805C127.344 7.24805 129.307 9.3501 129.307 12.7046V12.7192C129.307 16.0811 127.352 18.1831 124.209 18.1831ZM124.209 16.3081C125.967 16.3081 127.051 14.9092 127.051 12.7192V12.7046C127.051 10.5 125.945 9.12305 124.209 9.12305C122.481 9.12305 121.368 10.4927 121.368 12.7046V12.7192C121.368 14.9312 122.474 16.3081 124.209 16.3081ZM130.735 18V7.43115H132.669L137.444 14.3013H137.488V7.43115H139.693V18H137.774L132.984 11.0786H132.94V18H130.735ZM146.219 18.1831C143.062 18.1831 141.128 16.125 141.128 12.6826V12.6753C141.128 9.2915 143.069 7.24805 146.167 7.24805C148.709 7.24805 150.438 8.72754 150.789 10.7124L150.811 10.8149H148.592L148.562 10.7417C148.211 9.71631 147.369 9.12305 146.175 9.12305C144.432 9.12305 143.384 10.4121 143.384 12.6533V12.6606C143.384 14.9531 144.498 16.3081 146.255 16.3081C147.698 16.3081 148.687 15.4512 148.746 14.1475L148.753 13.9937H146.336V12.3457H150.906V13.5615C150.906 16.4399 149.163 18.1831 146.219 18.1831ZM157.872 18V9.25488H154.817V7.43115H163.145V9.25488H160.083V18H157.872ZM164.368 18V7.43115H166.58V18H164.368ZM168.338 18V7.43115H170.271L175.047 14.3013H175.091V7.43115H177.295V18H175.376L170.586 11.0786H170.542V18H168.338ZM184.561 18V9.25488H181.507V7.43115H189.834V9.25488H186.773V18H184.561ZM195.489 18.1831C192.779 18.1831 191.058 16.6157 191.058 14.2646V7.43115H193.27V14.0669C193.27 15.4365 194.068 16.3081 195.489 16.3081C196.91 16.3081 197.701 15.4365 197.701 14.0669V7.43115H199.913V14.2646C199.913 16.6084 198.213 18.1831 195.489 18.1831ZM204.681 18V14.0522L201.004 7.43115H203.392L205.765 11.9429H205.816L208.182 7.43115H210.577L206.893 14.0522V18H204.681ZM216.194 5.45361V5.42432C216.363 5.27783 216.451 5.13135 216.451 4.97754C216.451 4.73584 216.275 4.58203 215.872 4.58203C215.748 4.58203 215.616 4.59668 215.521 4.61865V3.79102C215.689 3.73975 215.96 3.68848 216.26 3.68848C217.066 3.68848 217.571 4.02539 217.571 4.56738C217.571 4.92627 217.352 5.20459 216.985 5.45361H216.194ZM214.444 5.46826H215.857L217.439 6.94775H215.975L215.147 6.17139L214.341 6.94775H212.876L214.444 5.46826ZM211.653 18V7.43115H218.655V9.25488H213.865V11.7891H218.384V13.5176H213.865V16.1763H218.655V18H211.653ZM220.252 18V7.43115H222.186L226.961 14.3013H227.005V7.43115H229.209V18H227.291L222.5 11.0786H222.457V18H220.252ZM237.808 18.1831C235.296 18.1831 233.677 17.0332 233.553 15.085L233.545 14.9678H235.633L235.647 15.0483C235.787 15.8687 236.658 16.3813 237.867 16.3813C239.09 16.3813 239.859 15.8467 239.859 15.041V15.0337C239.859 14.3159 239.339 13.957 238.028 13.686L236.915 13.4663C234.827 13.0488 233.772 12.0527 233.772 10.4634V10.4561C233.772 8.52246 235.457 7.24805 237.801 7.24805C240.247 7.24805 241.749 8.47119 241.851 10.3242L241.858 10.4634H239.771L239.764 10.3755C239.654 9.54785 238.892 9.04248 237.801 9.04248C236.666 9.0498 235.984 9.56982 235.984 10.3242V10.3315C235.984 10.998 236.526 11.3862 237.742 11.6279L238.863 11.855C241.075 12.2944 242.071 13.1953 242.071 14.8579V14.8652C242.071 16.894 240.474 18.1831 237.808 18.1831ZM243.426 18V7.43115H245.638V18H243.426ZM247.396 18V7.43115H249.329L254.104 14.3013H254.148V7.43115H256.353V18H254.434L249.644 11.0786H249.6V18H247.396ZM258.118 18V7.43115H260.33V11.7231H265.091V7.43115H267.303V18H265.091V13.5469H260.33V18H258.118Z" fill="#BC2626"/>
<path d="M52.8789 38V27.4312H55.0908V31.7231H59.8516V27.4312H62.0635V38H59.8516V33.5469H55.0908V38H52.8789ZM68.5894 38.1831C65.4473 38.1831 63.4917 36.0811 63.4917 32.7192V32.7046C63.4917 29.3428 65.4619 27.248 68.5894 27.248C71.7241 27.248 73.687 29.3501 73.687 32.7046V32.7192C73.687 36.0811 71.7314 38.1831 68.5894 38.1831ZM68.5894 36.3081C70.3472 36.3081 71.4312 34.9092 71.4312 32.7192V32.7046C71.4312 30.5 70.3252 29.123 68.5894 29.123C66.8608 29.123 65.7476 30.4927 65.7476 32.7046V32.7192C65.7476 34.9312 66.8535 36.3081 68.5894 36.3081ZM68.5894 41.23C67.9448 41.23 67.4468 40.7246 67.4468 40.1167C67.4468 39.5088 67.9448 39.0034 68.5894 39.0034C69.2339 39.0034 69.7319 39.5088 69.7319 40.1167C69.7319 40.7246 69.2339 41.23 68.5894 41.23ZM79.8174 38.1831C76.7266 38.1831 74.7856 36.1177 74.7856 32.7119V32.7046C74.7856 29.2988 76.7339 27.248 79.8174 27.248C82.3809 27.248 84.2192 28.8667 84.4243 31.1079L84.4316 31.1738H82.2783L82.249 31.0493C82 29.8848 81.1357 29.123 79.8174 29.123C78.1255 29.123 77.0415 30.4854 77.0415 32.6973V32.7046C77.0415 34.9312 78.1255 36.3081 79.8174 36.3081C81.0918 36.3081 81.9854 35.5757 82.271 34.3232L82.2856 34.25H84.439L84.4316 34.3306C84.2266 36.5791 82.3735 38.1831 79.8174 38.1831ZM91.646 38L88.1084 27.4312H90.5547L92.9717 35.7368H93.0156L95.4253 27.4312H97.8789L94.3413 38H91.646ZM98.9629 38V27.4312H101.175V38H98.9629ZM103.885 26.5596L105.569 24.1426H107.283L108.99 26.5596H107.466L106.419 25.0947L105.408 26.5596H103.885ZM102.933 38V27.4312H109.935V29.2549H105.145V31.7891H109.664V33.5176H105.145V36.1763H109.935V38H102.933ZM106.434 41.23C105.796 41.23 105.291 40.7246 105.291 40.1167C105.291 39.5088 105.796 39.0034 106.434 39.0034C107.078 39.0034 107.576 39.5088 107.576 40.1167C107.576 40.7246 107.078 41.23 106.434 41.23ZM111.531 38V27.4312H113.465L118.24 34.3013H118.284V27.4312H120.489V38H118.57L113.78 31.0786H113.736V38H111.531ZM129.93 38.1831C126.839 38.1831 124.898 36.1177 124.898 32.7119V32.7046C124.898 29.2988 126.846 27.248 129.93 27.248C132.493 27.248 134.332 28.8667 134.537 31.1079L134.544 31.1738H132.391L132.361 31.0493C132.112 29.8848 131.248 29.123 129.93 29.123C128.238 29.123 127.154 30.4854 127.154 32.6973V32.7046C127.154 34.9312 128.238 36.3081 129.93 36.3081C131.204 36.3081 132.098 35.5757 132.383 34.3232L132.398 34.25H134.551L134.544 34.3306C134.339 36.5791 132.486 38.1831 129.93 38.1831ZM138.133 26.5596L139.825 24.1426H141.539L143.238 26.5596H141.714L140.667 25.0947L139.656 26.5596H138.133ZM140.689 38.1831C137.547 38.1831 135.591 36.0811 135.591 32.7192V32.7046C135.591 29.3428 137.562 27.248 140.689 27.248C143.824 27.248 145.787 29.3501 145.787 32.7046V32.7192C145.787 36.0811 143.831 38.1831 140.689 38.1831ZM140.689 36.3081C142.447 36.3081 143.531 34.9092 143.531 32.7192V32.7046C143.531 30.5 142.425 29.123 140.689 29.123C138.96 29.123 137.847 30.4927 137.847 32.7046V32.7192C137.847 34.9312 138.953 36.3081 140.689 36.3081ZM147.215 38V27.4312H149.148L153.924 34.3013H153.968V27.4312H156.172V38H154.253L149.463 31.0786H149.419V38H147.215ZM162.698 38.1831C159.542 38.1831 157.608 36.125 157.608 32.6826V32.6753C157.608 29.2915 159.549 27.248 162.647 27.248C165.188 27.248 166.917 28.7275 167.269 30.7124L167.291 30.8149H165.071L165.042 30.7417C164.69 29.7163 163.848 29.123 162.654 29.123C160.911 29.123 159.864 30.4121 159.864 32.6533V32.6606C159.864 34.9531 160.977 36.3081 162.735 36.3081C164.178 36.3081 165.167 35.4512 165.225 34.1475L165.232 33.9937H162.815V32.3457H167.386V33.5615C167.386 36.4399 165.643 38.1831 162.698 38.1831ZM171.824 38V27.4312H173.758L178.533 34.3013H178.577V27.4312H180.782V38H178.863L174.073 31.0786H174.029V38H171.824ZM187.308 38.1831C184.151 38.1831 182.217 36.125 182.217 32.6826V32.6753C182.217 29.2915 184.158 27.248 187.256 27.248C189.798 27.248 191.526 28.7275 191.878 30.7124L191.9 30.8149H189.681L189.651 30.7417C189.3 29.7163 188.458 29.123 187.264 29.123C185.521 29.123 184.473 30.4121 184.473 32.6533V32.6606C184.473 34.9531 185.586 36.3081 187.344 36.3081C188.787 36.3081 189.776 35.4512 189.834 34.1475L189.842 33.9937H187.425V32.3457H191.995V33.5615C191.995 36.4399 190.252 38.1831 187.308 38.1831ZM193.46 38V27.4312H195.672V31.7231H200.433V27.4312H202.645V38H200.433V33.5469H195.672V38H193.46ZM205.354 26.5596L207.039 24.1426H208.753L210.459 26.5596H208.936L207.889 25.0947L206.878 26.5596H205.354ZM204.402 38V27.4312H211.404V29.2549H206.614V31.7891H211.133V33.5176H206.614V36.1763H211.404V38H204.402ZM207.903 41.23C207.266 41.23 206.761 40.7246 206.761 40.1167C206.761 39.5088 207.266 39.0034 207.903 39.0034C208.548 39.0034 209.046 39.5088 209.046 40.1167C209.046 40.7246 208.548 41.23 207.903 41.23ZM215.975 38V27.4312H220.574C222.566 27.4312 223.819 28.4565 223.819 30.0825V30.0972C223.819 31.2544 222.94 32.2432 221.775 32.397V32.4409C223.248 32.5508 224.31 33.5908 224.31 34.9751V34.9897C224.31 36.8428 222.911 38 220.655 38H215.975ZM220.003 29.0718H218.187V31.8477H219.732C220.977 31.8477 221.644 31.3276 221.644 30.4121V30.3975C221.644 29.5552 221.036 29.0718 220.003 29.0718ZM219.996 33.3491H218.187V36.3521H220.091C221.358 36.3521 222.054 35.832 222.054 34.8506V34.8359C222.054 33.8691 221.351 33.3491 219.996 33.3491ZM230 38.1831C227.291 38.1831 225.569 36.6157 225.569 34.2646V27.4312H227.781V34.0669C227.781 35.4365 228.58 36.3081 230 36.3081C231.421 36.3081 232.212 35.4365 232.212 34.0669V27.4312C233.824 27.2334 234.183 26.772 234.168 25.2266H235.816C235.816 26.7939 235.457 27.6069 234.424 28.0684V34.2646C234.424 36.6084 232.725 38.1831 230 38.1831ZM240.987 38.1831C238.277 38.1831 236.556 36.6157 236.556 34.2646V27.4312H238.768V34.0669C238.768 35.4365 239.566 36.3081 240.987 36.3081C242.408 36.3081 243.199 35.4365 243.199 34.0669V27.4312H245.411V34.2646C245.411 36.6084 243.711 38.1831 240.987 38.1831ZM254.852 38.1831C251.761 38.1831 249.82 36.1177 249.82 32.7119V32.7046C249.82 29.2988 251.768 27.248 254.852 27.248C257.415 27.248 259.253 28.8667 259.458 31.1079L259.466 31.1738H257.312L257.283 31.0493C257.034 29.8848 256.17 29.123 254.852 29.123C253.16 29.123 252.076 30.4854 252.076 32.6973V32.7046C252.076 34.9312 253.16 36.3081 254.852 36.3081C256.126 36.3081 257.02 35.5757 257.305 34.3232L257.32 34.25H259.473L259.466 34.3306C259.261 36.5791 257.408 38.1831 254.852 38.1831ZM260.843 38V27.4312H263.055V31.7231H267.815V27.4312H270.027V38H267.815V33.5469H263.055V38H260.843ZM273.44 26.5596H272.02L273.294 24.1426H275.169L273.44 26.5596ZM271.785 38V27.4312H273.997V38H271.785ZM275.755 38V27.4312H277.688L282.464 34.3013H282.508V27.4312H284.712V38H282.793L278.003 31.0786H277.959V38H275.755ZM286.478 38V27.4312H288.689V31.7231H293.45V27.4312H295.662V38H293.45V33.5469H288.689V38H286.478ZM303.257 38L299.72 27.4312H302.166L304.583 35.7368H304.627L307.037 27.4312H309.49L305.953 38H303.257ZM310.574 38V27.4312H312.786V38H310.574ZM318.968 25.168C318.624 25.168 318.309 25.0874 318.001 24.9189L317.818 24.8091C317.62 24.6992 317.488 24.6479 317.32 24.6479C317.078 24.6479 316.976 24.8237 316.976 25.146V25.168H315.899V25.1021C315.899 24.2012 316.419 23.7178 317.122 23.7178C317.452 23.7178 317.774 23.8057 318.074 23.9814L318.265 24.084C318.462 24.2012 318.594 24.2451 318.777 24.2451C319.012 24.2451 319.122 24.0693 319.122 23.7471V23.7178H320.191V23.7837C320.191 24.6919 319.664 25.168 318.968 25.168ZM317.334 25.4683H318.748L320.33 26.9478H318.865L318.038 26.1714L317.232 26.9478H315.767L317.334 25.4683ZM314.544 38V27.4312H321.546V29.2549H316.756V31.7891H321.275V33.5176H316.756V36.1763H321.546V38H314.544ZM323.143 38V27.4312H325.076L329.852 34.3013H329.896V27.4312H332.1V38H330.181L325.391 31.0786H325.347V38H323.143ZM339.366 38V29.2549H336.312V27.4312H344.639V29.2549H341.578V38H339.366ZM345.862 38V27.4312H348.074V31.7231H352.835V27.4312H355.047V38H352.835V33.5469H348.074V38H345.862ZM359.017 26.5596L360.708 24.1426H362.422L364.122 26.5596H362.598L361.551 25.0947L360.54 26.5596H359.017ZM361.573 38.1831C358.431 38.1831 356.475 36.0811 356.475 32.7192V32.7046C356.475 29.3428 358.445 27.248 361.573 27.248C364.708 27.248 366.67 29.3501 366.67 32.7046V32.7192C366.67 36.0811 364.715 38.1831 361.573 38.1831ZM361.573 36.3081C363.331 36.3081 364.415 34.9092 364.415 32.7192V32.7046C364.415 30.5 363.309 29.123 361.573 29.123C359.844 29.123 358.731 30.4927 358.731 32.7046V32.7192C358.731 34.9312 359.837 36.3081 361.573 36.3081ZM368.099 38V27.4312H370.032L374.808 34.3013H374.852V27.4312H377.056V38H375.137L370.347 31.0786H370.303V38H368.099ZM383.582 38.1831C380.425 38.1831 378.492 36.125 378.492 32.6826V32.6753C378.492 29.2915 380.433 27.248 383.531 27.248C386.072 27.248 387.801 28.7275 388.152 30.7124L388.174 30.8149H385.955L385.926 30.7417C385.574 29.7163 384.732 29.123 383.538 29.123C381.795 29.123 380.748 30.4121 380.748 32.6533V32.6606C380.748 34.9531 381.861 36.3081 383.619 36.3081C385.062 36.3081 386.05 35.4512 386.109 34.1475L386.116 33.9937H383.699V32.3457H388.27V33.5615C388.27 36.4399 386.526 38.1831 383.582 38.1831Z" fill="#BC2626"/>
</svg>
