<svg width="36" height="37" viewBox="0 0 36 37" fill="none" xmlns="http://www.w3.org/2000/svg">
<rect x="0.432" y="1.12731" width="35.136" height="35.136" rx="17.568" fill="white"/>
<rect x="0.432" y="1.12731" width="35.136" height="35.136" rx="17.568" stroke="#BC2626" stroke-width="0.864"/>
<g clip-path="url(#clip0_84_2499)">
<path d="M14.0508 18.744C14.3883 18.7331 14.7267 18.7374 15.0636 18.7599C15.2814 18.7732 15.5003 18.8894 15.6034 19.0876C15.7135 19.3071 15.6914 19.5931 15.5349 19.7851C15.4258 19.9192 15.2584 19.9927 15.0896 20.0106C14.7449 20.0476 14.3972 20.042 14.0514 20.0361C14.0524 19.6054 14.0534 19.1747 14.0508 18.744Z" fill="white"/>
<path d="M20.4987 7.18182C21.5671 6.91997 22.7151 7.07622 23.7015 7.55324C24.2865 7.89156 24.6899 8.48113 24.9048 9.11407C25.2238 10.0473 25.2367 11.0533 25.1605 12.0272C25.031 13.4447 24.6945 14.8393 24.2137 16.177C24.0446 16.6312 23.8653 17.0847 23.6234 17.5058C23.5749 17.5905 23.5222 17.6736 23.4536 17.7438C23.6965 17.1049 23.8834 16.4458 24.04 15.7808C24.2565 14.8314 24.3995 13.8601 24.389 12.8842C24.3824 11.9491 24.2278 10.9894 23.7727 10.1625C23.3017 9.29846 22.459 8.63672 21.4966 8.4285C20.6915 8.25338 19.8504 8.41658 19.1022 8.73603C18.0983 9.16571 17.2154 9.83506 16.4175 10.5746C16.0098 10.9559 15.6275 11.3641 15.2656 11.7895C15.8065 10.8272 16.4788 9.93769 17.2543 9.15346C18.155 8.2504 19.244 7.47942 20.4987 7.18182Z" fill="#DE221A"/>
<path d="M17.5382 8.49512C16.1576 9.84077 14.9915 11.4033 14.0466 13.0846C13.5012 14.0668 13.0348 15.0943 12.6772 16.1606C12.3388 17.1513 12.1048 18.1769 11.9581 19.2137C11.8296 20.0982 11.7719 20.9953 11.8276 21.8884C11.8909 22.7839 12.0761 23.6906 12.5187 24.4794C12.8615 25.0826 13.3759 25.6331 14.0496 25.8493C14.0133 25.8887 13.9563 25.8906 13.9082 25.9069C13.2814 26.0777 12.6047 26.131 11.9739 25.9506C11.4871 25.8135 11.0524 25.5027 10.7663 25.0839C10.3887 24.5374 10.238 23.869 10.1797 23.2159C10.094 22.0814 10.2539 20.945 10.4852 19.8367C10.6474 19.0687 10.8511 18.3103 11.0791 17.5598C11.1322 17.3937 11.174 17.2228 11.2449 17.063C11.6954 16.044 12.2148 15.0566 12.7811 14.0979C13.5167 12.8621 14.3403 11.6757 15.2878 10.5935C15.9661 9.82157 16.7096 9.1029 17.5382 8.49512Z" fill="#DE221A"/>
<path d="M23.5781 17.9112C24.6529 17.9036 25.728 17.9095 26.803 17.9082C26.8034 18.1694 26.803 18.4302 26.8034 18.6914C26.4026 18.6934 26.0015 18.6898 25.6007 18.6934C25.603 19.9749 25.6001 21.2563 25.6021 22.5381C25.3302 22.539 25.0583 22.5344 24.7867 22.5404C24.7761 21.2579 24.784 19.9749 24.7824 18.6921C24.381 18.6904 23.9796 18.6944 23.5781 18.6901C23.5818 18.4306 23.5818 18.1707 23.5781 17.9112Z" fill="#DE221A"/>
<path d="M13.1384 17.9668C13.6607 17.9678 14.1835 17.9671 14.7062 17.9675C15.0034 17.9704 15.302 17.9731 15.5973 18.0135C15.9625 18.0674 16.2832 18.3144 16.4585 18.6365C16.5907 18.8808 16.6299 19.1645 16.6236 19.4392C16.6157 19.7014 16.5574 19.9692 16.4088 20.1887C16.2057 20.5148 15.8445 20.7303 15.4662 20.7723C14.9992 20.8299 14.5279 20.8114 14.0589 20.813C14.0585 21.3867 14.0546 21.9607 14.0609 22.5347C13.753 22.5414 13.4449 22.5381 13.1367 22.5364C13.1413 21.0133 13.138 19.4899 13.1384 17.9668ZM14.0566 18.7437C14.0592 19.1744 14.0582 19.6051 14.0572 20.0358C14.403 20.0417 14.7507 20.0473 15.0954 20.0103C15.2641 19.9924 15.4316 19.9189 15.5407 19.7848C15.6972 19.5928 15.7193 19.3068 15.6092 19.0873C15.5061 18.8891 15.2872 18.7729 15.0694 18.7596C14.7325 18.7371 14.3941 18.7328 14.0566 18.7437Z" fill="#DE221A"/>
<path d="M16.7539 17.9716C17.8293 17.9647 18.9054 17.9693 19.9811 17.9693C19.9808 18.2301 19.9811 18.4907 19.9808 18.7515C19.5787 18.7568 19.1763 18.7446 18.7745 18.7578C18.7831 20.0379 18.7772 21.3187 18.7775 22.5991C18.5043 22.5958 18.2314 22.5985 17.9585 22.5978C17.9598 21.316 17.9582 20.0343 17.9595 18.7525C17.5584 18.7515 17.1573 18.7528 16.7562 18.7522C16.7562 18.4917 16.7605 18.2315 16.7539 17.9716Z" fill="#DE221A"/>
<path d="M21.2826 19.6992C21.5937 20.0101 21.9045 20.3212 22.213 20.6351C22.2097 21.2693 22.2126 21.9039 22.2116 22.5382C21.9015 22.5587 21.5914 22.5762 21.2812 22.5978C21.2829 21.6315 21.2806 20.6655 21.2826 19.6992Z" fill="#DE221A"/>
<path d="M20.2674 21.4863C20.5824 21.0427 20.884 20.5717 21.0254 20.04C21.0412 20.812 21.0224 21.584 21.0323 22.3563C21.0317 22.3973 21.0056 22.4314 20.9888 22.4675C20.419 23.5434 19.5367 24.4166 18.5789 25.1479C17.9221 25.6461 17.2171 26.0784 16.4881 26.4618C16.0214 26.7097 15.5304 26.9153 15.0169 27.0418C14.3567 27.2056 13.656 27.2337 12.9933 27.0692C12.1334 26.8584 11.3572 26.3376 10.8164 25.6365C11.2224 26.0539 11.7896 26.2814 12.3608 26.3443C13.1149 26.431 13.8746 26.2612 14.5769 25.991C15.6714 25.5647 16.6486 24.8907 17.5665 24.1654C18.5605 23.3769 19.511 22.5125 20.2674 21.4863Z" fill="#DE221A"/>
<path d="M9.38035 27.5871C11.9903 27.5907 14.6005 27.5884 17.2105 27.5884C17.5881 27.5818 18.0047 27.5834 18.3221 27.8191C18.6286 27.5735 19.0439 27.5824 19.4153 27.5861C21.9771 27.5874 24.5386 27.5874 27.1001 27.5864C27.0998 27.7026 27.1027 27.8191 27.0978 27.936C24.472 27.9363 21.8463 27.9373 19.2205 27.9347C19.0086 27.937 18.7835 27.9476 18.5953 28.0552C18.5406 28.083 18.5087 28.1363 18.4846 28.1906C18.3725 28.1949 18.2608 28.2005 18.1491 28.2084C18.1412 28.0929 18.0288 28.038 17.9322 28.0072C17.6237 27.9069 17.2955 27.9439 16.9771 27.9386C14.445 27.94 11.9128 27.9357 9.38068 27.9406C9.37804 27.8228 9.3787 27.7049 9.38035 27.5871Z" fill="#DE221A"/>
<path d="M9.37891 28.1924C12.0561 28.1937 14.7329 28.1927 17.4097 28.1927C17.6935 28.2116 17.9674 28.3506 18.1424 28.5774C18.143 28.9402 18.1427 29.3033 18.1424 29.6661C17.9674 29.3497 17.5798 29.2467 17.2433 29.2464C14.6222 29.2543 12.001 29.2682 9.38022 29.2851C9.37825 28.921 9.38055 28.5565 9.37891 28.1924Z" fill="#DE221A"/>
<path d="M18.3359 28.5814C18.5119 28.3467 18.7957 28.2083 19.0857 28.1924C21.7556 28.1937 24.4259 28.196 27.0958 28.1914C27.1083 28.5552 27.0974 28.92 27.1011 29.2842C24.4733 29.2712 21.8456 29.2534 19.2176 29.2474C18.887 29.2504 18.5129 29.356 18.3373 29.6622C18.3359 29.302 18.3392 28.9415 18.3359 28.5814Z" fill="#DE221A"/>
<path d="M22.6829 15.6149C22.6938 15.5729 22.7175 15.5358 22.7386 15.498C22.6368 16.3058 22.5076 17.1105 22.3972 17.9176C22.1816 18.0248 21.9786 18.1579 21.7578 18.2546C22.006 17.5359 22.269 16.8225 22.5231 16.1058C22.5781 15.9426 22.6496 15.7847 22.6829 15.6149Z" fill="#B89C0E"/>
<path d="M20.3047 17.9219C20.6442 18.0728 20.9783 18.236 21.3171 18.3883C21.3623 18.4072 21.4038 18.434 21.4417 18.4654C21.2077 18.5532 20.9727 18.6382 20.7387 18.7263C20.5931 18.4588 20.4401 18.1946 20.3047 17.9219Z" fill="#B89C0E"/>
<path d="M19.808 20.3635C20.3917 19.7944 20.9681 19.2174 21.5554 18.6523C21.7683 19.1856 21.9951 19.7143 22.1905 20.2539C21.9456 19.9864 21.7133 19.707 21.4783 19.4306C20.8989 19.7653 20.334 20.1271 19.75 20.4532C19.7658 20.4211 19.7813 20.388 19.808 20.3635Z" fill="#B89C0E"/>
<path d="M21.4334 17.9001C21.849 17.1383 22.2544 16.3703 22.6799 15.6143C22.6466 15.7841 22.5751 15.942 22.52 16.1052C22.2659 16.8219 22.0029 17.5353 21.7548 18.2539C21.9756 18.1573 22.1786 18.0242 22.3941 17.9169C22.7379 17.9053 23.0823 17.9163 23.4264 17.9024C23.4274 17.9113 23.4297 17.9289 23.4307 17.9378C23.4234 17.9391 23.4092 17.9418 23.402 17.9434C23.3387 17.955 23.2761 17.9679 23.2155 17.9891C22.7043 18.1702 22.1908 18.3443 21.6796 18.525C21.8477 18.624 22.0362 18.681 22.2112 18.7664C22.2086 19.2729 22.2152 19.7797 22.2079 20.2861C22.2033 20.2779 22.1948 20.2613 22.1905 20.253C21.995 19.7135 21.7683 19.1848 21.5554 18.6515C20.9681 19.2166 20.3916 19.7936 19.808 20.3626C19.7813 20.3871 19.7658 20.4202 19.7499 20.4523C19.7302 20.4894 19.6804 20.496 19.6484 20.5192C20.0159 19.9243 20.3735 19.3228 20.7384 18.726C20.9724 18.6379 21.2073 18.5529 21.4413 18.4651C21.4034 18.4337 21.3619 18.4069 21.3168 18.388C20.978 18.2357 20.6438 18.0725 20.3043 17.9216L20.2918 17.9163C20.6721 17.9067 21.0528 17.9097 21.4334 17.9001Z" fill="#EFF003"/>
<path d="M23.2116 17.99C23.2723 17.9688 23.3349 17.9559 23.3982 17.9443C23.005 18.2241 22.6042 18.4932 22.2074 18.7673C22.0324 18.6819 21.8439 18.6249 21.6758 18.526C22.187 18.3452 22.7004 18.1711 23.2116 17.99Z" fill="#B89C0D"/>
</g>
<defs>
<clipPath id="clip0_84_2499">
<rect width="18.72" height="23.04" fill="white" transform="translate(9 6.82715)"/>
</clipPath>
</defs>
</svg>
